<svg id="Layer_1" data-name="Layer 1" xmlns="http://www.w3.org/2000/svg" viewBox="0 0 1000 1000"><defs><style>.cls-1{fill:#1d3557;}</style></defs><path class="cls-1" d="M373,552.1V448.64h54V462H386.21v33h39.84v13.33H386.21v30.47h43.28V552.1Z"/><path class="cls-1" d="M468.66,553.8l-26.47-60.66h13.89L468,521.63a17.75,17.75,0,0,1,.93,2.83,17.54,17.54,0,0,1,.93-3l12-28.35h13.37Z"/><path class="cls-1" d="M518.42,524.32c.39,9.49,6.61,17,16.27,17,8.61,0,13.37-3,18.4-7.08l7.68,8.5c-6.88,6.38-14.56,11.06-26.21,11.06-16.14,0-28.72-11.91-28.72-31.75,0-17.29,11.65-30.61,28.19-30.61s27.66,13.75,27.66,32.88Zm15.08-20.83c-7.14,0-13.1,4.11-14.56,10.63h29.12C546.08,507.31,540.52,503.49,533.5,503.49Z"/><path class="cls-1" d="M613.17,507.17a12.62,12.62,0,0,0-7.94-3c-7,0-12,6.66-12,18V552.1H580.61v-59h12.58v7.09c4-5.81,9-8.79,14.82-8.79,4.37,0,7.41,1.42,10.85,4.4Z"/><path class="cls-1" d="M659.62,562.58c-2.51,7.8-6.35,14.88-17.47,14.88a24.52,24.52,0,0,1-8.87-1.27V564a15.13,15.13,0,0,0,5.43,1.28c8.07,0,8.87-6,10.85-12l-19.19-60.09H644l12.18,38.55.79,3.4a31.47,31.47,0,0,1,.93-3.54l12-38.41h13.37Z"/><path class="cls-1" d="M730.42,552.1h-29V448.64H727c16.41,0,28.06,10.77,28.06,26.93,0,11.9-4.9,19.56-11.12,23.81,7.55,2.41,16.28,11.9,16.28,24.66S751.73,552.1,730.42,552.1ZM724.73,462H714.67V494.7h8.87c14.43,0,17.73-9.35,17.73-18C741.27,467.49,735.58,462,724.73,462ZM730.29,508H714.67v30.76H729c11.91,0,17.47-6.24,17.47-15.88C746.44,514,740.08,508,730.29,508Z"/><path class="cls-1" d="M804.93,553.8c-16.28,0-28.06-12.33-28.06-31.61,0-15.87,10.59-30.75,27.8-30.75s28.58,14.17,28.58,30.19C833.25,539.48,821.74,553.8,804.93,553.8Zm-.26-49.89c-9.4,0-15,8.22-15,18.28,0,11.77,5.56,19.13,14.82,19.13,11.25,0,15.88-8.21,15.88-18.84C820.41,511,814.33,503.91,804.67,503.91Z"/><path class="cls-1" d="M877.19,553.8c-16.28,0-28.06-12.33-28.06-31.61,0-15.87,10.59-30.75,27.79-30.75s28.59,14.17,28.59,30.19C905.51,539.48,894,553.8,877.19,553.8Zm-.27-49.89c-9.4,0-14.95,8.22-14.95,18.28,0,11.77,5.55,19.13,14.82,19.13,11.25,0,15.88-8.21,15.88-18.84C892.67,511,886.58,503.91,876.92,503.91Z"/><path class="cls-1" d="M960.29,552.1l-17.07-25.51-6,5.52v20H924.69V448.64h12.58v67l21.83-22.53h17.34l-24,24.09,24.08,34.87Z"/><path class="cls-1" d="M250.6,494.81a52.55,52.55,0,0,0,9.22-29.8h0a52.77,52.77,0,0,0-52.77-52.76H23.43v175.5h193A52.76,52.76,0,0,0,269.18,535h0A52.65,52.65,0,0,0,250.6,494.81ZM216.41,552.2H59V517.78h69.73V482.22H59V447.8H207.05a17.21,17.21,0,0,1,0,34.42H163.89v35.56h52.52a17.21,17.21,0,0,1,0,34.42Z"/></svg>